# xmcd
#
# Track frame offsets: 
#        154
#        28864
#        47982
#        77251
#        93149
#        118492
#        135818
#        163928
#        188658
#        215856
#        231230
#
# Disc length: 3303 seconds
#
# Revision: 1
# Processed by: cddbd v1.5.1PL0 Copyright (c) Steve Scherf et al.
# Submitted via: ExactAudioCopy v0.90b4
#
DISCID=930ce50b
DTITLE=J.B. Hutto - Hip Shakin'  [Wolf] [Austria]
DYEAR=2000
DGENRE=Blues
TTITLE0=Honey Bee
TTITLE1=Dust My Broom
TTITLE2=Garbage Man
TTITLE3=Too Much Alcohol
TTITLE4=The Things I Used To Do
TTITLE5=Dim Lights
TTITLE6=Long Distance Call
TTITLE7=J.B.'s Boogie
TTITLE8=Mistake In Life
TTITLE9=Hip Shakin'
TTITLE10=Milkman Blues
EXTD=YEAR: 2000 ID3G: 0
EXTT0=
EXTT1=
EXTT2=
EXTT3=
EXTT4=
EXTT5=
EXTT6=
EXTT7=
EXTT8=
EXTT9=
EXTT10=
PLAYORDER=
